<?xml version="1.0" encoding="UTF-8" standalone="no"?>
<!-- Created with Inkscape (http://www.inkscape.org/) -->
<svg
   xmlns:dc="http://purl.org/dc/elements/1.1/"
   xmlns:cc="http://web.resource.org/cc/"
   xmlns:rdf="http://www.w3.org/1999/02/22-rdf-syntax-ns#"
   xmlns:svg="http://www.w3.org/2000/svg"
   xmlns="http://www.w3.org/2000/svg"
   xmlns:sodipodi="http://sodipodi.sourceforge.net/DTD/sodipodi-0.dtd"
   xmlns:inkscape="http://www.inkscape.org/namespaces/inkscape"
   width="65"
   height="110"
   id="svg4139"
   sodipodi:version="0.32"
   inkscape:version="0.45.1"
   version="1.0"
   sodipodi:docbase="/home/phsi/Desktop/clIPART"
   sodipodi:docname="Light_Bulb-Silhouette.svg"
   inkscape:output_extension="org.inkscape.output.svg.inkscape">
  <defs
     id="defs4141" />
  <sodipodi:namedview
     id="base"
     pagecolor="#ffffff"
     bordercolor="#666666"
     borderopacity="1.0"
     gridtolerance="10000"
     guidetolerance="10"
     objecttolerance="10"
     inkscape:pageopacity="0.0"
     inkscape:pageshadow="2"
     inkscape:zoom="3.7"
     inkscape:cx="32.5"
     inkscape:cy="55"
     inkscape:document-units="px"
     inkscape:current-layer="g9145"
     height="110px"
     width="65px"
     inkscape:window-width="910"
     inkscape:window-height="635"
     inkscape:window-x="0"
     inkscape:window-y="25" />
  <metadata
     id="metadata4144">
    <rdf:RDF>
      <cc:Work
         rdf:about="">
        <dc:format>image/svg+xml</dc:format>
        <dc:type
           rdf:resource="http://purl.org/dc/dcmitype/StillImage" />
      </cc:Work>
    </rdf:RDF>
  </metadata>
  <g
     inkscape:label="Layer 1"
     inkscape:groupmode="layer"
     id="layer1"
     transform="translate(-314.9389,-506.47161)">
    <g
       id="g9145"
       transform="matrix(0.3246143,0,0,0.3246143,311.60581,432.06822)">
      <path
         style="color:#000000;fill:#000000;fill-opacity:1;fill-rule:nonzero;stroke:none;stroke-width:9.80000019;stroke-linecap:butt;stroke-linejoin:miter;marker:none;stroke-miterlimit:4;stroke-dasharray:none;stroke-dashoffset:0;stroke-opacity:1;visibility:visible;display:inline;overflow:visible"
         d="M 70.875,-123.34375 C -21.673357,-123.34375 -96.874998,-48.142092 -96.875,44.40625 C -96.874997,90.68043 -78.076453,132.64227 -47.71875,163 C -41.132679,169.58607 -27.51271,188.13154 -16.0625,207.125 C -10.337389,216.62173 -5.07901,226.31895 -1.3125,234.78125 C 2.45401,243.24355 4.59375,250.68685 4.59375,254.46875 L 4.59375,327.25 L 4.59375,332.1875 L 9.46875,332.15625 L 13.5,347.40625 L 13.5,357.1875 L 128.0625,347.21875 L 128.3125,347.1875 L 132.65625,331.71875 L 137.15625,331.6875 L 137.15625,326.8125 L 137.15625,254.46875 C 137.15625,250.68685 139.29599,243.24355 143.0625,234.78125 C 146.82901,226.31895 152.08739,216.62173 157.8125,207.125 C 169.26271,188.13153 182.88268,169.58606 189.46875,163 C 219.82645,132.64229 238.625,90.68044 238.625,44.40625 C 238.625,-48.142098 163.42334,-123.34375 70.875,-123.34375 z M 70.875,-113.5625 C 158.12092,-113.5625 228.84375,-42.83968 228.84375,44.40625 C 228.84375,88.02923 211.15908,127.49716 182.5625,156.09375 C 174.40999,164.24625 161.1555,182.57299 149.40625,202.0625 C 143.53162,211.80726 138.10588,221.76712 134.09375,230.78125 C 130.08162,239.79538 127.34375,247.67339 127.34375,254.46875 L 127.34375,321.9375 L 14.40625,322.34375 L 14.40625,254.46875 C 14.40625,247.67339 11.66838,239.79538 7.65625,230.78125 C 3.6441198,221.76712 -1.78162,211.80725 -7.65625,202.0625 C -19.4055,182.57299 -32.65999,164.24625 -40.8125,156.09375 C -69.409083,127.49715 -87.09375,88.02923 -87.09375,44.40625 C -87.093745,-42.83968 -16.37094,-113.5625 70.875,-113.5625 z M 127.15625,351.28125 L 14.6875,361.09375 L 13.5,363.09375 L 9.8125,369.3125 L 13.53125,375.53125 L 14.5625,377.28125 L 127.0625,367.5 L 128.25,365.5 L 131.9375,359.3125 L 128.25,353.125 L 127.15625,351.28125 z M 128.25,371.40625 L 13.6875,381.40625 L 13.53125,381.40625 L 13.53125,387.1875 L 128.0625,377.21875 L 128.25,377.1875 L 128.25,371.40625 z M 127.15625,381.28125 L 14.6875,391.09375 L 13.53125,393.03125 L 9.8125,399.3125 L 13.53125,405.5625 L 14.5625,407.28125 L 127.0625,397.5 L 128.25,395.5 L 131.9375,389.3125 L 128.25,383.125 L 127.15625,381.28125 z M 128.25,401.40625 L 13.6875,411.40625 L 13.53125,411.40625 L 13.53125,417.1875 L 128.0625,407.21875 L 128.25,407.1875 L 128.25,401.40625 z M 127.15625,411.28125 L 14.6875,421.09375 L 13.53125,423.03125 L 9.8125,429.3125 L 13.5625,435.59375 L 14.5625,437.28125 L 127.0625,427.5 L 128.25,425.5 L 131.9375,419.3125 L 128.25,413.125 L 127.15625,411.28125 z M 128.25,431.40625 L 13.6875,441.40625 L 13.5625,441.40625 L 13.5625,447.21875 L 33.34375,459.15625 L 33.78125,457.40625 L 108.25,457.40625 L 108.6875,459.15625 L 128.25,447.21875 L 128.25,431.40625 z M 41.6875,461.40625 L 53.34375,467.65625 L 54.375,468.21875 L 54.375,469.40625 L 87.625,469.40625 L 87.625,468.21875 L 88.6875,467.65625 L 100.3125,461.40625 L 41.6875,461.40625 z "
         transform="matrix(0.505013,0,0,0.5197097,74.593869,308.71135)"
         id="path1311" />
    </g>
  </g>
</svg>
